<?xml version="1.0" encoding="UTF-8" standalone="no"?>
<svg width="500px" height="369px" viewBox="0 0 500 369" version="1.1" xmlns="http://www.w3.org/2000/svg" xmlns:xlink="http://www.w3.org/1999/xlink" xmlns:sketch="http://www.bohemiancoding.com/sketch/ns">
    <!-- Generator: Sketch 3.0.1 (7597) - http://www.bohemiancoding.com/sketch -->
    <title>Slice 1</title>
    <description>Created with Sketch.</description>
    <defs></defs>
    <g id="Page-1" stroke="none" stroke-width="1" fill="none" fill-rule="evenodd" sketch:type="MSPage">
        <path d="M5.81095304,226.801243 C-1.9531637,218.9957 -1.93232976,206.211598 5.84567628,198.419981 L55.8332543,148.293213 C63.6112604,140.48767 76.3477452,140.48767 84.1326959,148.279287 L165.315634,229.495931 C173.100585,237.287548 185.82318,237.273622 193.594242,229.468079 L416.072993,5.87860275 C423.844054,-1.92694061 436.580539,-1.96871872 444.386323,5.80897257 L494.123894,55.3229947 C501.929679,63.100686 501.964402,75.8430093 494.193341,83.6555156 L224.400701,354.802406 C216.62964,362.607949 201.275022,369 190.2747,369 L166.96846,369 C155.968137,369 140.627409,362.594023 132.863293,354.78848 L5.81095304,226.801243" id="Fill-461" fill="#FFFFFF" sketch:type="MSShapeGroup"></path>
    </g>
</svg>