<?xml version="1.0" encoding="UTF-8" standalone="no"?>
<svg width="501px" height="438px" viewBox="0 0 501 438" version="1.1" xmlns="http://www.w3.org/2000/svg" xmlns:xlink="http://www.w3.org/1999/xlink" xmlns:sketch="http://www.bohemiancoding.com/sketch/ns">
    <!-- Generator: Sketch 3.0.1 (7597) - http://www.bohemiancoding.com/sketch -->
    <title>Slice 1</title>
    <description>Created with Sketch.</description>
    <defs></defs>
    <g id="Page-1" stroke="none" stroke-width="1" fill="none" fill-rule="evenodd" sketch:type="MSPage">
        <path d="M437.533051,327.874952 C407.341542,314.45658 362.533398,279.868849 296.185682,267.985394 C313.14931,249.823363 325.995284,221.416974 339.202333,187.759917 C346.861311,168.264383 345.541994,151.63727 345.541994,127.967594 C345.541994,110.479259 348.840285,82.4201367 344.500429,67.0015099 C329.869907,14.883773 292.887391,0.5 249.565214,0.5 C206.208318,0.5 169.191084,14.946281 154.581393,67.1543071 C150.276256,82.5312619 153.58149,110.527877 153.58149,127.967594 C153.58149,151.692832 152.289949,168.368563 159.969758,187.905769 C173.280964,221.729514 185.932512,250.094231 202.84059,268.186809 C137.020601,280.285569 92.5527016,314.609377 62.5486742,327.993023 C0.457488662,355.684043 0.15196281,386.000397 0.15196281,386.000397 L0.15196281,437.5 L500.151963,437.444437 L500.151963,386.000397 C500.151963,386.000397 499.860324,355.579863 437.533051,327.874952" id="Fill-737" fill-opacity="0.250000715" fill="#000000" sketch:type="MSShapeGroup"></path>
    </g>
</svg>